<?xml version="1.0" standalone="no"?>
<!DOCTYPE svg PUBLIC "-//W3C//DTD SVG 20010904//EN"
 "http://www.w3.org/TR/2001/REC-SVG-20010904/DTD/svg10.dtd">
<svg version="1.0" xmlns="http://www.w3.org/2000/svg"
 width="120.000000pt" height="120.000000pt" viewBox="0 0 120.000000 120.000000"
 preserveAspectRatio="xMidYMid meet">
<metadata>
Created by potrace 1.11, written by Peter Selinger 2001-2013
</metadata>
<g transform="translate(0.000000,120.000000) scale(0.100000,-0.100000)"
fill="#000000" stroke="none">
<path d="M532 1158 c-71 -11 -155 -41 -210 -77 -111 -71 -201 -202 -226 -327
-18 -91 -16 -388 3 -424 37 -69 92 -100 177 -100 l54 0 0 -78 c0 -122 -16
-115 270 -116 286 0 270 -7 270 116 l0 78 49 0 c92 0 150 33 181 105 15 34 17
66 15 215 -4 227 -14 274 -86 380 -66 100 -196 195 -289 214 -70 14 -88 16
-120 19 -19 2 -59 -1 -88 -5z"/>
</g>
</svg>
